<svg width="161" height="40" viewBox="0 0 161 40" fill="none" xmlns="http://www.w3.org/2000/svg">
<rect width="161" height="40" rx="10" fill="white"/>
<path d="M48.7065 27V11.7862H52.5959V23.4114H59.8805V27H48.7065ZM69.4028 27.1719C67.8556 27.1719 66.5018 26.8496 65.3415 26.2049C64.1811 25.5603 63.2786 24.6578 62.6339 23.4974C62.0036 22.3227 61.6884 20.9618 61.6884 19.4146C61.6884 17.8245 62.0179 16.4492 62.6769 15.2888C63.3359 14.1141 64.2527 13.2045 65.4274 12.5598C66.6021 11.9152 67.963 11.5928 69.5102 11.5928C71.043 11.5928 72.3896 11.908 73.55 12.5383C74.7104 13.1687 75.6201 14.064 76.279 15.2244C76.938 16.3704 77.2675 17.7313 77.2675 19.3072C77.2675 20.8543 76.938 22.2224 76.279 23.4114C75.6344 24.5861 74.7175 25.5101 73.5285 26.1834C72.3538 26.8424 70.9786 27.1719 69.4028 27.1719ZM69.4887 23.4974C70.4055 23.4974 71.1433 23.2897 71.702 22.8742C72.2607 22.4445 72.6618 21.9144 72.9054 21.2841C73.1632 20.6538 73.2921 20.0306 73.2921 19.4146C73.2921 18.9562 73.2205 18.4906 73.0773 18.0179C72.9483 17.5308 72.7335 17.0795 72.4326 16.6641C72.1461 16.2486 71.7593 15.912 71.2722 15.6541C70.7852 15.3963 70.1835 15.2673 69.4672 15.2673C68.5647 15.2673 67.8341 15.4751 67.2754 15.8905C66.7167 16.2916 66.3084 16.8073 66.0506 17.4377C65.7927 18.068 65.6638 18.7198 65.6638 19.3931C65.6638 20.0664 65.7927 20.7182 66.0506 21.3486C66.3228 21.9789 66.7382 22.4946 67.2969 22.8957C67.8699 23.2968 68.6005 23.4974 69.4887 23.4974ZM87.0579 27.1719C85.5394 27.1719 84.2142 26.8567 83.0825 26.2264C81.9651 25.5818 81.0984 24.6721 80.4824 23.4974C79.8664 22.3227 79.5584 20.9331 79.5584 19.3287C79.5584 18.1253 79.7303 17.0509 80.0742 16.1054C80.4323 15.1456 80.9408 14.329 81.5998 13.6557C82.2588 12.9824 83.0467 12.4739 83.9635 12.13C84.8947 11.7719 85.9262 11.5928 87.0579 11.5928C88.2326 11.5928 89.307 11.7934 90.2811 12.1945C91.2696 12.5813 92.0862 13.1901 92.7308 14.021C93.3898 14.8376 93.8052 15.8833 93.9771 17.1583H90.1307C90.0448 16.6999 89.8729 16.3346 89.615 16.0624C89.3715 15.7902 89.0563 15.5897 88.6695 15.4607C88.297 15.3318 87.8673 15.2673 87.3802 15.2673C86.6639 15.2673 86.0622 15.3891 85.5752 15.6326C85.0881 15.8762 84.6942 16.2057 84.3933 16.6211C84.1068 17.0222 83.8991 17.4735 83.7702 17.9749C83.6412 18.462 83.5768 18.9562 83.5768 19.4576C83.5768 20.1309 83.6914 20.7827 83.9206 21.413C84.1641 22.029 84.5509 22.5304 85.0809 22.9172C85.6253 23.304 86.3559 23.4974 87.2728 23.4974C87.7312 23.4974 88.1681 23.4401 88.5835 23.3255C88.999 23.2109 89.35 23.0318 89.6365 22.7883C89.923 22.5304 90.1021 22.2009 90.1737 21.7998H86.5851V18.5336H94.2565V19.0923C94.2565 20.797 93.9986 22.2511 93.4829 23.4544C92.9672 24.6578 92.1793 25.5818 91.1192 26.2264C90.0591 26.8567 88.7053 27.1719 87.0579 27.1719ZM104.261 27.1719C102.714 27.1719 101.36 26.8496 100.2 26.2049C99.0397 25.5603 98.1372 24.6578 97.4926 23.4974C96.8622 22.3227 96.5471 20.9618 96.5471 19.4146C96.5471 17.8245 96.8766 16.4492 97.5355 15.2888C98.1945 14.1141 99.1114 13.2045 100.286 12.5598C101.461 11.9152 102.822 11.5928 104.369 11.5928C105.902 11.5928 107.248 11.908 108.409 12.5383C109.569 13.1687 110.479 14.064 111.138 15.2244C111.797 16.3704 112.126 17.7313 112.126 19.3072C112.126 20.8543 111.797 22.2224 111.138 23.4114C110.493 24.5861 109.576 25.5101 108.387 26.1834C107.212 26.8424 105.837 27.1719 104.261 27.1719ZM104.347 23.4974C105.264 23.4974 106.002 23.2897 106.561 22.8742C107.119 22.4445 107.52 21.9144 107.764 21.2841C108.022 20.6538 108.151 20.0306 108.151 19.4146C108.151 18.9562 108.079 18.4906 107.936 18.0179C107.807 17.5308 107.592 17.0795 107.291 16.6641C107.005 16.2486 106.618 15.912 106.131 15.6541C105.644 15.3963 105.042 15.2673 104.326 15.2673C103.423 15.2673 102.693 15.4751 102.134 15.8905C101.575 16.2916 101.167 16.8073 100.909 17.4377C100.651 18.068 100.522 18.7198 100.522 19.3931C100.522 20.0664 100.651 20.7182 100.909 21.3486C101.181 21.9789 101.597 22.4946 102.156 22.8957C102.729 23.2968 103.459 23.4974 104.347 23.4974Z" fill="#1D1D1B"/>
</svg>
